# xmcd CD database file
#
# Track frame offsets:
#	150
#	16637
#	29910
#	42947
#	59437
#	78792
#	87437
#	105444
#	123161
#	134742
#	150137
#	163675
#	181746
#	193564
#	208742
#	220937
#	242858
#	262513
#	275693
#	293933
#	315633
#
# Disc length: 4387 seconds
#
# Revision: 2
# Processed by: cddbd v1.4b41PL1 Copyright (c) Steve Scherf et al.
# Submitted via: Feurio! 1.50.2ß - http://www.feurio.com
#
DISCID=20112115
DTITLE=Various Artist - Låtförslag2
DYEAR=1900
DGENRE=
TTITLE0=Commitments- - Nowhere to Run
TTITLE1=Eddie Floyd - Knock On Wood
TTITLE2=Stevie Wonder - Uptight
TTITLE3=Edgar Winter -  - Keep Playing That Rock N Roll
TTITLE4=Gary Moore -  - Cold day in Hell
TTITLE5=Ray Charles-  - Hit The Road Jack
TTITLE6=Bob Marley - Is This Love
TTITLE7=Kid Creole and the Coconuts- - Stool pidgeon
TTITLE8=Gary Moore  - Walking By Myself
TTITLE9=Joe Cocker - She Came In Through The Barhroom Window
TTITLE10=Roxy Music - Let´s Stick Together
TTITLE11=Rod Stewart - The Motown song
TTITLE12=Sam and Dave - Soul Man
TTITLE13=bLUES bROTHERS - eVERYBODY nEED sOMEBODY
TTITLE14=Blues Brothers -  - Gimme Some Lovin'
TTITLE15=Chicago -  - 25 Or 6 To 4
TTITLE16=Huey Lewis - Power Of Love
TTITLE17=Phil Collins - You Can't Hurry Love
TTITLE18=Bruce Springsteen - Cherry Darling
TTITLE19=Stevie Wonder - Master Blaster
TTITLE20=Four Tops - Reach Out
EXTD=Composer: Blandat\r\n
EXTT0=
EXTT1=
EXTT2=
EXTT3=
EXTT4=
EXTT5=
EXTT6=
EXTT7=
EXTT8=
EXTT9=
EXTT10=
EXTT11=
EXTT12=
EXTT13=
EXTT14=
EXTT15=
EXTT16=
EXTT17=
EXTT18=
EXTT19=
EXTT20=
PLAYORDER=
